<svg xmlns="http://www.w3.org/2000/svg" width="6.464" height="9.696" viewBox="0 0 6.464 9.696">
  <path id="map-marker" d="M4.848,3.232A1.557,1.557,0,0,0,4.375,2.09a1.557,1.557,0,0,0-1.143-.473A1.557,1.557,0,0,0,2.09,2.09a1.557,1.557,0,0,0-.473,1.143A1.557,1.557,0,0,0,2.09,4.375a1.557,1.557,0,0,0,1.143.473,1.557,1.557,0,0,0,1.143-.473A1.557,1.557,0,0,0,4.848,3.232Zm1.616,0a2.657,2.657,0,0,1-.208,1.13l-2.3,4.886a.768.768,0,0,1-.3.328.817.817,0,0,1-.852,0,.725.725,0,0,1-.294-.328L.208,4.362A2.657,2.657,0,0,1,0,3.232,3.113,3.113,0,0,1,.947.947,3.115,3.115,0,0,1,3.232,0,3.112,3.112,0,0,1,5.517.947,3.114,3.114,0,0,1,6.464,3.232Z" fill="rgba(255,255,255,0.84)"/>
</svg>
