<svg id="save" xmlns="http://www.w3.org/2000/svg" width="25.989" height="25.989" viewBox="0 0 25.989 25.989">
  <path id="Path_16" data-name="Path 16" d="M0,0H25.989V25.989H0Z" fill="none"/>
  <path id="Path_17" data-name="Path 17" d="M18.16,3H5.166A2.165,2.165,0,0,0,3,5.166v15.16a2.165,2.165,0,0,0,2.166,2.166h15.16a2.172,2.172,0,0,0,2.166-2.166V7.331Zm2.166,17.326H5.166V5.166h12.1L20.326,8.23Zm-7.58-7.58a3.249,3.249,0,1,0,3.249,3.249A3.244,3.244,0,0,0,12.746,12.746Zm-6.5-6.5h9.746V10.58H6.249Z" transform="translate(0.249 0.249)" fill="#fff"/>
</svg>
