<svg xmlns="http://www.w3.org/2000/svg" width="9.277" height="9.277" viewBox="0 0 9.277 9.277">
  <path id="website" d="M7.918,1.359a4.637,4.637,0,1,0,0,6.558A4.635,4.635,0,0,0,7.918,1.359Zm-.194,5.9a4.648,4.648,0,0,0-.693-.513,7.5,7.5,0,0,0,.28-1.81H8.674A4.01,4.01,0,0,1,7.724,7.256ZM.6,4.933H1.966a7.5,7.5,0,0,0,.28,1.81,4.648,4.648,0,0,0-.693.513A4.01,4.01,0,0,1,.6,4.933Zm.95-2.914a4.648,4.648,0,0,0,.693.513,7.5,7.5,0,0,0-.28,1.81H.6A4.01,4.01,0,0,1,1.553,2.02Zm2.79.574a4.015,4.015,0,0,1-1.377-.349A2.569,2.569,0,0,1,4.343.634Zm0,.592V4.342H2.557A6.963,6.963,0,0,1,2.782,2.81,4.606,4.606,0,0,0,4.343,3.186Zm0,1.747V6.09a4.606,4.606,0,0,0-1.561.376,6.963,6.963,0,0,1-.224-1.532Zm0,1.749v1.96A2.569,2.569,0,0,1,2.965,7.031,4.015,4.015,0,0,1,4.343,6.682Zm.591,0a4.015,4.015,0,0,1,1.377.349A2.569,2.569,0,0,1,4.934,8.642Zm0-.592V4.933H6.72A6.963,6.963,0,0,1,6.5,6.466,4.606,4.606,0,0,0,4.934,6.09Zm0-1.747V3.186A4.606,4.606,0,0,0,6.5,2.81,6.963,6.963,0,0,1,6.72,4.342Zm0-1.749V.634A2.569,2.569,0,0,1,6.312,2.245,4.015,4.015,0,0,1,4.934,2.594ZM6.261.929A4.029,4.029,0,0,1,7.309,1.6a4.062,4.062,0,0,1-.475.361A4.449,4.449,0,0,0,6.261.929ZM2.443,1.959A4.063,4.063,0,0,1,1.968,1.6,4.029,4.029,0,0,1,3.016.929a4.451,4.451,0,0,0-.572,1.03Zm0,5.358a4.45,4.45,0,0,0,.572,1.03,4.029,4.029,0,0,1-1.048-.669A4.062,4.062,0,0,1,2.443,7.317Zm4.39,0a4.064,4.064,0,0,1,.475.361,4.029,4.029,0,0,1-1.048.669,4.449,4.449,0,0,0,.572-1.03Zm.477-2.975a7.5,7.5,0,0,0-.28-1.81,4.649,4.649,0,0,0,.693-.513,4.01,4.01,0,0,1,.95,2.323Z" transform="translate(0 0)" fill="#dcdcdc"/>
</svg>
