<svg xmlns="http://www.w3.org/2000/svg" width="8.595" height="8.595" viewBox="0 0 8.595 8.595">
  <path id="phone" d="M8.595,6.788a2.015,2.015,0,0,1-.061.43,2.423,2.423,0,0,1-.128.418,1.637,1.637,0,0,1-.745.647,2.367,2.367,0,0,1-1.135.311A2.436,2.436,0,0,1,6.2,8.573,2.475,2.475,0,0,1,5.851,8.5q-.192-.055-.287-.089t-.339-.125q-.244-.092-.3-.11a5.526,5.526,0,0,1-1.068-.507A9.2,9.2,0,0,1,2.246,6.348,9.2,9.2,0,0,1,.928,4.737,5.535,5.535,0,0,1,.421,3.669Q.4,3.614.311,3.37T.186,3.031Q.153,2.936.1,2.744a2.53,2.53,0,0,1-.076-.351A2.38,2.38,0,0,1,0,2.069,2.367,2.367,0,0,1,.311.934,1.637,1.637,0,0,1,.958.189,2.431,2.431,0,0,1,1.376.061,2.012,2.012,0,0,1,1.807,0a.341.341,0,0,1,.128.018q.11.037.323.464.067.116.183.33t.214.388q.1.174.189.327.018.024.107.153a1.738,1.738,0,0,1,.131.217.394.394,0,0,1,.043.174.507.507,0,0,1-.174.305,2.982,2.982,0,0,1-.378.336,3.684,3.684,0,0,0-.378.323.465.465,0,0,0-.174.281.412.412,0,0,0,.031.137q.031.082.052.125t.085.147q.064.1.07.116A6.406,6.406,0,0,0,3.321,5.274,6.406,6.406,0,0,0,4.755,6.336l.116.07q.1.064.147.085a1.282,1.282,0,0,0,.125.052.42.42,0,0,0,.137.031A.465.465,0,0,0,5.561,6.4a3.683,3.683,0,0,0,.323-.378,2.982,2.982,0,0,1,.336-.378.507.507,0,0,1,.305-.174.4.4,0,0,1,.174.043,1.7,1.7,0,0,1,.217.131l.153.107q.153.092.327.189t.388.214q.214.116.33.183.427.214.464.323a.341.341,0,0,1,.018.128Z" fill="rgba(255,255,255,0.84)"/>
</svg>
